<?xml version="1.0" encoding="utf-8"?>
<!-- Generator: Adobe Illustrator 26.3.1, SVG Export Plug-In . SVG Version: 6.00 Build 0)  -->
<svg version="1.0" xmlns="http://www.w3.org/2000/svg" xmlns:xlink="http://www.w3.org/1999/xlink" x="0px" y="0px"
	 viewBox="0 0 380.76 393.52" style="enable-background:new 0 0 380.76 393.52;" xml:space="preserve">
<style type="text/css">
	.st0{display:none;}
	.st2{fill:#FFFFFF;stroke:#2F3D3F;stroke-width:1.6552;stroke-miterlimit:10;}
	.st3{fill:#7425AD;}
	.st4{fill:#FFFFFF;}
	.st5{fill:#FFFFFF;stroke:#2F3D3F;stroke-width:2;stroke-miterlimit:10;}
	.st6{fill:#FFFFFF;stroke:#2F3D3F;stroke-miterlimit:10;}
	.st7{fill:none;stroke:#FFFFFF;stroke-width:7.843;stroke-miterlimit:10;}
	.st8{fill:none;stroke:#FFFFFF;stroke-width:6;stroke-linecap:round;stroke-linejoin:bevel;stroke-miterlimit:10;}
	.st9{fill:#FFFFFF;stroke:#FFFFFF;stroke-width:6;stroke-linecap:round;stroke-linejoin:round;stroke-miterlimit:10;}
	.st10{fill:none;stroke:#FFFFFF;stroke-width:6;stroke-linecap:round;stroke-linejoin:round;stroke-miterlimit:10;}
	.st11{fill:#7425AD;stroke:#000000;stroke-width:0.9341;stroke-miterlimit:10;}
</style>
<g id="Layer_2" class="st0">
</g>
<g id="colors_xA0_Image_1_">
	<rect x="37.23" y="45.03" class="st11" width="295" height="295"/>
	<g>
		<path class="st4" d="M112.61,275.89c0.42,3.54,1.5,6.23,3.27,8.09c1.76,1.86,4.45,2.79,8.04,2.79c2.91,0,5.03-0.6,6.38-1.79
			c1.35-1.19,2.02-2.94,2.02-5.24c0-1.77-0.47-3.18-1.4-4.24c-0.93-1.06-2.68-1.94-5.24-2.65l-10.07-2.52
			c-8.65-2.21-14.93-5.66-18.84-10.35c-3.91-4.69-5.87-10.92-5.87-18.7c0-5.04,0.74-9.48,2.23-13.33c1.49-3.85,3.6-7.1,6.33-9.75
			c2.73-2.65,6.05-4.64,9.97-5.97c3.91-1.33,8.29-1.99,13.13-1.99c5.26,0,9.81,0.75,13.65,2.25c3.84,1.5,7.02,3.6,9.55,6.3
			c2.53,2.7,4.45,5.82,5.76,9.35c1.31,3.54,2.11,7.34,2.39,11.41l-22.94,2.65c-0.62-3.45-1.64-5.81-3.06-7.1
			c-1.42-1.28-3.44-1.92-6.07-1.92c-2.84,0-4.88,0.58-6.12,1.72c-1.25,1.15-1.87,2.61-1.87,4.38c0,1.5,0.47,2.74,1.4,3.71
			c0.93,0.97,2.72,1.81,5.35,2.52l9.97,2.65c4.5,1.24,8.32,2.72,11.47,4.44c3.15,1.72,5.71,3.78,7.68,6.17
			c1.97,2.39,3.41,5.11,4.31,8.16c0.9,3.05,1.35,6.57,1.35,10.55c0,10.26-2.79,18.19-8.36,23.81c-5.57,5.62-13.75,8.42-24.55,8.42
			c-5.47,0-10.22-0.78-14.27-2.32c-4.05-1.55-7.42-3.78-10.12-6.7c-2.7-2.92-4.76-6.48-6.18-10.68c-1.42-4.2-2.27-8.91-2.54-14.13
			H112.61z"/>
		<path class="st4" d="M194.51,309.71c-5.88,0-11.09-1.13-15.62-3.38c-4.53-2.25-8.36-5.5-11.47-9.75
			c-3.11-4.25-5.49-9.42-7.11-15.52c-1.63-6.1-2.44-13-2.44-20.69c0-7.69,0.79-14.61,2.39-20.76c1.59-6.15,3.98-11.41,7.16-15.78
			c3.18-4.38,7.11-7.74,11.78-10.08c4.67-2.34,10.09-3.51,16.25-3.51c6.02,0,11.35,1.13,15.99,3.38c4.64,2.25,8.53,5.5,11.68,9.75
			c3.15,4.24,5.52,9.37,7.11,15.39c1.59,6.01,2.39,12.78,2.39,20.29c0,7.61-0.8,14.44-2.39,20.49c-1.59,6.06-3.94,11.3-7.06,15.72
			l8.3,13.26l-12.25,12.34l-8.93-14.46C205.44,308.61,200.18,309.71,194.51,309.71z M195.24,284.51c0.28,0,0.57,0,0.88,0
			c0.31,0,0.67-0.04,1.09-0.13l-7.99-12.6l11.42-11.81l7.16,11.27c0.21-1.5,0.38-3.2,0.52-5.11c0.14-1.9,0.21-3.82,0.21-5.77
			c0-16.18-4.43-24.27-13.29-24.27c-8.86,0-13.29,8.09-13.29,24.27C181.95,276.46,186.38,284.51,195.24,284.51z"/>
		<path class="st4" d="M237.8,212.62h23.56v68.84h31.04l-1.97,25.87H237.8V212.62z"/>
	</g>
	<polyline class="st8" points="287.12,92.43 287.12,187.48 87.46,187.48 87.46,69.99 261.17,69.99 	"/>
	<polygon class="st9" points="287.12,92.43 261.17,69.99 258.82,94.77 	"/>
	<line class="st10" x1="105.45" y1="90.86" x2="161.23" y2="90.86"/>
	<line class="st10" x1="122.67" y1="108.08" x2="206.28" y2="108.08"/>
	<line class="st10" x1="122.67" y1="124.9" x2="198.33" y2="124.9"/>
	<line class="st10" x1="147.32" y1="141.33" x2="264.3" y2="141.33"/>
	<line class="st10" x1="123.06" y1="158.55" x2="240.04" y2="158.55"/>
	<line class="st10" x1="105.22" y1="175.61" x2="160.78" y2="175.61"/>
</g>
</svg>
