<?xml version="1.0" encoding="UTF-8"?><svg id="a" xmlns="http://www.w3.org/2000/svg" viewBox="0 0 380.76 393.52"><defs><style>.n{fill:#231CA5;stroke:#000;stroke-width:.93px;}.n,.c{stroke-miterlimit:10;}.c{fill:#fff;stroke:#2f3d3f;stroke-width:1.66px;}</style></defs><rect class="n" x="46.04" y="50.03" width="295" height="295"/><g><path class="c" d="M105.24,279.29h-18.46l-2.53,12h-18.29l18.95-74.5h22.87l18.78,74.5h-18.7l-2.61-12Zm-14.54-18.47h10.62l-5.31-24.73-5.31,24.73Z"/><path class="c" d="M154.4,291.29v-5.43c-2.83,4.73-6.75,7.1-11.76,7.1s-9.35-2.42-12.37-7.25c-3.02-4.83-4.53-11.88-4.53-21.13,0-4.8,.44-9.09,1.31-12.89,.87-3.79,2.08-6.96,3.63-9.5,1.55-2.54,3.4-4.45,5.55-5.74,2.15-1.29,4.53-1.93,7.15-1.93,2.4,0,4.48,.56,6.25,1.67,1.77,1.11,3.14,2.54,4.12,4.28v-23.69h17.48v74.5h-16.82Zm-.73-28.38c0-3.76-.41-6.5-1.22-8.24-.82-1.67-2.1-2.5-3.84-2.5s-3.08,.89-4,2.66c-.93,1.77-1.39,4.68-1.39,8.71s.46,6.96,1.39,8.76c.93,1.81,2.26,2.71,4,2.71,1.63,0,2.88-.83,3.76-2.5,.49-.97,.83-2.12,1.02-3.44,.19-1.32,.29-2.89,.29-4.7v-1.46Z"/><path class="c" d="M202.9,234.53c2.56,0,4.8,.68,6.74,2.04,1.93,1.36,3.44,3.32,4.53,5.9,1.52-2.43,3.32-4.36,5.39-5.79,2.07-1.42,4.52-2.14,7.35-2.14,4.3,0,7.64,1.69,10,5.06,2.37,3.38,3.55,8.23,3.55,14.56v37.15h-17.48v-34.12c0-1.6-.24-2.73-.73-3.39-.49-.66-1.17-.99-2.04-.99-1.58,0-2.72,.66-3.43,1.98-.16,.35-.3,.77-.41,1.25-.11,.49-.16,1.15-.16,1.98v33.29h-17.48v-34.12c0-1.6-.24-2.73-.73-3.39-.49-.66-1.17-.99-2.04-.99-1.58,0-2.72,.66-3.43,1.98-.16,.35-.3,.77-.41,1.25-.11,.49-.16,1.15-.16,1.98v33.29h-17.48v-55.1h16.99v5.74c1.31-2.23,2.9-4.02,4.78-5.37,1.88-1.36,4.1-2.04,6.66-2.04Z"/><path class="c" d="M244.96,216.79h17.48v14.09h-17.48v-14.09Zm0,19.41h17.48v55.1h-17.48v-55.1Z"/><path class="c" d="M267.34,236.2h16.99v5.74c1.47-2.3,3.2-4.1,5.19-5.43,1.99-1.32,4.34-1.98,7.06-1.98,4.41,0,7.87,1.71,10.37,5.11,2.5,3.41,3.76,8.24,3.76,14.5v37.15h-17.48v-33.08c0-1.95-.3-3.34-.9-4.17-.6-.83-1.44-1.25-2.53-1.25-.93,0-1.76,.21-2.49,.63s-1.32,1.04-1.76,1.88c-.22,.42-.4,.92-.53,1.51-.14,.59-.2,1.41-.2,2.45v32.03h-17.48v-55.1Z"/></g><path class="c" d="M303.87,125.82c-.7,2.44-1.19,4.95-2.12,7.3-6.96,17.67-24.21,27.38-42.88,24.11-7.7-1.35-14.33-4.92-19.91-10.38-.94-.92-1.7-1.05-2.9-.62-27.96,10.19-55.94,20.35-83.91,30.51-9.95,3.61-19.87,7.32-29.87,10.78-14.5,5.02-28.96-5.28-29.62-19.95-.45-10,6.07-19.34,15.66-21.99,14.09-3.9,28.25-7.54,42.39-11.26,22.4-5.89,44.8-11.75,67.21-17.62,2.84-.74,5.67-1.52,8.52-2.22,1-.25,1.45-.76,1.65-1.78,3.93-20.44,22.37-33.84,42.96-31.13,8.26,1.09,15.36,4.72,21.45,10.38,.19,.18,.36,.39,.51,.59,.12,.16,.21,.35,.44,.72-2.81,.89-5.52,1.77-8.24,2.62-7.5,2.34-14.99,4.68-22.51,6.98-1.05,.32-1.54,.85-1.68,1.94-.71,5.35-1.51,10.68-2.2,16.03-.07,.58,.22,1.37,.62,1.81,3.62,4,7.33,7.92,10.96,11.91,.73,.81,1.41,.82,2.35,.52,9.44-2.97,18.9-5.91,28.34-8.88,.74-.23,1.43-.67,2.14-1.01l.64,.64Zm-194.81,51.85c5.92,3.15,13.48,.84,16.66-5.1,3.25-6.08,.92-13.64-5.21-16.86-5.92-3.11-13.42-.86-16.58,4.97-3.35,6.19-1.1,13.68,5.12,16.99Z"/></svg>