<?xml version="1.0" encoding="utf-8"?>
<!-- Generator: Adobe Illustrator 26.2.1, SVG Export Plug-In . SVG Version: 6.00 Build 0)  -->
<svg version="1.1" xmlns="http://www.w3.org/2000/svg" xmlns:xlink="http://www.w3.org/1999/xlink" x="0px" y="0px"
	 viewBox="0 0 380.76 393.52" style="enable-background:new 0 0 380.76 393.52;" xml:space="preserve">
<style type="text/css">
	.st0{display:none;}
	.st1{fill:#0079EF;}
	.st2{fill:#FFFFFF;}
	.st3{fill:#FFFFFF;stroke:#2F3D3F;stroke-width:1.6552;stroke-miterlimit:10;}
	.st4{fill:#FFFFFF;stroke:#2F3D3F;stroke-miterlimit:10;}
</style>
<g id="Layer_2" class="st0">
</g>
<g id="colors_xA0_Image_1_">
	<path class="st1" d="M45.79,98.19v52.89v8.06v78.78v5.59v84.37c0,23.79,66.15,43.07,147.75,43.07c81.6,0,147.75-19.28,147.75-43.07
		v-84.37v-5.59v-78.78v-8.06V98.19H45.79z"/>
	<ellipse class="st2" cx="193.54" cy="98.19" rx="147.75" ry="43.07"/>
	<ellipse class="st1" cx="193.54" cy="76.54" rx="147.75" ry="43.07"/>
	<g>
		<path class="st3" d="M105.24,319.69H86.78l-2.53,12H65.96l18.95-74.5h22.87l18.78,74.5h-18.7L105.24,319.69z M90.7,301.23h10.62
			l-5.31-24.73L90.7,301.23z"/>
		<path class="st3" d="M154.4,331.69v-5.43c-2.83,4.73-6.75,7.1-11.76,7.1c-5.23,0-9.35-2.42-12.37-7.25
			c-3.02-4.83-4.53-11.88-4.53-21.13c0-4.8,0.44-9.09,1.31-12.89c0.87-3.79,2.08-6.96,3.63-9.5c1.55-2.54,3.4-4.45,5.55-5.74
			c2.15-1.29,4.53-1.93,7.15-1.93c2.4,0,4.48,0.56,6.25,1.67c1.77,1.11,3.14,2.54,4.12,4.28v-23.69h17.48v74.5H154.4z
			 M153.66,303.31c0-3.76-0.41-6.5-1.22-8.24c-0.82-1.67-2.1-2.5-3.84-2.5c-1.74,0-3.08,0.89-4,2.66c-0.93,1.77-1.39,4.68-1.39,8.71
			c0,4.03,0.46,6.96,1.39,8.76c0.93,1.81,2.26,2.71,4,2.71c1.63,0,2.88-0.83,3.76-2.5c0.49-0.97,0.83-2.12,1.02-3.44
			c0.19-1.32,0.29-2.89,0.29-4.7V303.31z"/>
		<path class="st3" d="M202.9,274.93c2.56,0,4.8,0.68,6.74,2.04c1.93,1.36,3.44,3.32,4.53,5.9c1.52-2.43,3.32-4.36,5.39-5.79
			c2.07-1.42,4.52-2.14,7.35-2.14c4.3,0,7.64,1.69,10,5.06c2.37,3.38,3.55,8.23,3.55,14.56v37.15h-17.48v-34.12
			c0-1.6-0.24-2.73-0.73-3.39c-0.49-0.66-1.17-0.99-2.04-0.99c-1.58,0-2.72,0.66-3.43,1.98c-0.16,0.35-0.3,0.77-0.41,1.25
			c-0.11,0.49-0.16,1.15-0.16,1.98v33.29h-17.48v-34.12c0-1.6-0.24-2.73-0.73-3.39c-0.49-0.66-1.17-0.99-2.04-0.99
			c-1.58,0-2.72,0.66-3.43,1.98c-0.16,0.35-0.3,0.77-0.41,1.25c-0.11,0.49-0.16,1.15-0.16,1.98v33.29h-17.48v-55.1h16.99v5.74
			c1.31-2.23,2.9-4.02,4.78-5.37C198.13,275.61,200.34,274.93,202.9,274.93z"/>
		<path class="st3" d="M244.96,257.19h17.48v14.09h-17.48V257.19z M244.96,276.6h17.48v55.1h-17.48V276.6z"/>
		<path class="st3" d="M267.34,276.6h16.99v5.74c1.47-2.3,3.2-4.1,5.19-5.43c1.99-1.32,4.34-1.98,7.06-1.98
			c4.41,0,7.87,1.71,10.37,5.11c2.5,3.41,3.76,8.24,3.76,14.5v37.15h-17.48v-33.08c0-1.95-0.3-3.34-0.9-4.17
			c-0.6-0.83-1.44-1.25-2.53-1.25c-0.93,0-1.76,0.21-2.49,0.63c-0.73,0.42-1.32,1.04-1.76,1.88c-0.22,0.42-0.4,0.92-0.53,1.51
			c-0.14,0.59-0.2,1.41-0.2,2.45v32.03h-17.48V276.6z"/>
	</g>
	<path class="st3" d="M303.87,188.34c-0.7,2.44-1.19,4.95-2.12,7.3c-6.96,17.67-24.21,27.38-42.88,24.11
		c-7.7-1.35-14.33-4.92-19.91-10.38c-0.94-0.92-1.7-1.05-2.9-0.62c-27.96,10.19-55.94,20.35-83.91,30.51
		c-9.95,3.61-19.87,7.32-29.87,10.78c-14.5,5.02-28.96-5.28-29.62-19.95c-0.45-10,6.07-19.34,15.66-21.99
		c14.09-3.9,28.25-7.54,42.39-11.26c22.4-5.89,44.8-11.75,67.21-17.62c2.84-0.74,5.67-1.52,8.52-2.22c1-0.25,1.45-0.76,1.65-1.78
		c3.93-20.44,22.37-33.84,42.96-31.13c8.26,1.09,15.36,4.72,21.45,10.38c0.19,0.18,0.36,0.39,0.51,0.59
		c0.12,0.16,0.21,0.35,0.44,0.72c-2.81,0.89-5.52,1.77-8.24,2.62c-7.5,2.34-14.99,4.68-22.51,6.98c-1.05,0.32-1.54,0.85-1.68,1.94
		c-0.71,5.35-1.51,10.68-2.2,16.03c-0.07,0.58,0.22,1.37,0.62,1.81c3.62,4,7.33,7.92,10.96,11.91c0.73,0.81,1.41,0.82,2.35,0.52
		c9.44-2.97,18.9-5.91,28.34-8.88c0.74-0.23,1.43-0.67,2.14-1.01C303.44,187.91,303.66,188.13,303.87,188.34z M109.06,240.19
		c5.92,3.15,13.48,0.84,16.66-5.1c3.25-6.08,0.92-13.64-5.21-16.86c-5.92-3.11-13.42-0.86-16.58,4.97
		C100.58,229.4,102.84,236.88,109.06,240.19z"/>
</g>
</svg>
