<?xml version="1.0" encoding="utf-8"?>
<!-- Generator: Adobe Illustrator 26.2.1, SVG Export Plug-In . SVG Version: 6.00 Build 0)  -->
<svg version="1.1" xmlns="http://www.w3.org/2000/svg" xmlns:xlink="http://www.w3.org/1999/xlink" x="0px" y="0px"
	 viewBox="0 0 380.76 393.52" style="enable-background:new 0 0 380.76 393.52;" xml:space="preserve">
<style type="text/css">
	.st0{display:none;}
	.st1{fill:#0079EF;}
	.st2{fill:#FFFFFF;}
	.st3{fill:#FFFFFF;stroke:#2F3D3F;stroke-width:1.6552;stroke-miterlimit:10;}
	.st4{fill:#FFFFFF;stroke:#2F3D3F;stroke-miterlimit:10;}
</style>
<g id="Layer_2" class="st0">
</g>
<g id="colors_xA0_Image_1_">
	<path class="st1" d="M44.17,88.56v52.89v8.06v78.78v5.59v84.37c0,23.79,66.15,43.07,147.75,43.07c81.6,0,147.75-19.28,147.75-43.07
		v-84.37v-5.59v-78.78v-8.06V88.56H44.17z"/>
	<ellipse class="st2" cx="191.93" cy="88.56" rx="147.75" ry="43.07"/>
	<ellipse class="st1" cx="191.93" cy="66.91" rx="147.75" ry="43.07"/>
	<g>
		<path class="st3" d="M112.76,242.06H134v62.06h27.98l-1.78,23.32h-47.45V242.06z"/>
		<path class="st3" d="M195.76,327.44v-5.98c-2,2.55-4.13,4.47-6.41,5.74c-2.28,1.27-4.91,1.91-7.91,1.91
			c-2.06,0-4.09-0.36-6.08-1.07c-2-0.72-3.78-1.85-5.33-3.4c-1.56-1.55-2.82-3.52-3.79-5.9c-0.97-2.38-1.45-5.29-1.45-8.71
			c0-4.13,0.7-7.61,2.11-10.43c1.4-2.82,3.29-5.03,5.66-6.62c2.43-1.59,4.97-2.7,7.63-3.34c2.65-0.64,5.69-1.03,9.12-1.19l5.71-0.24
			v-2.18c0-2.34-0.37-4.04-1.12-5.09c-0.75-1.05-1.87-1.58-3.37-1.58c-1.44,0-2.56,0.44-3.37,1.32c-0.81,0.88-1.34,2.19-1.59,3.95
			l-17.87-1.67c0.81-6.78,3.18-11.9,7.11-15.37c3.93-3.47,9.36-5.2,16.28-5.2c4.3,0,7.91,0.64,10.81,1.91
			c2.9,1.28,5.24,3.07,7.02,5.38c1.78,2.31,3.04,5.1,3.79,8.37c0.75,3.27,1.12,6.9,1.12,10.88v38.5H195.76z M195.01,301.85
			l-5.15,0.36c-2.31,0.16-4.01,0.74-5.1,1.73c-1.09,1-1.64,2.37-1.64,4.13c0,1.52,0.37,2.65,1.12,3.41
			c0.75,0.76,1.84,1.14,3.28,1.14c2.18,0,3.98-0.86,5.38-2.57c1.4-1.71,2.11-3.96,2.11-6.76V301.85z"/>
		<path class="st3" d="M239,242.06v27.14c3.18-4.62,7.42-6.94,12.73-6.94c5.99,0,10.72,2.71,14.18,8.13
			c3.46,5.42,5.19,13.55,5.19,24.39c0,5.66-0.5,10.62-1.5,14.89c-1,4.27-2.39,7.85-4.16,10.76c-1.78,2.91-3.9,5.1-6.36,6.58
			c-2.47,1.47-5.19,2.21-8.19,2.21c-3.18,0-5.8-0.8-7.86-2.39c-2.06-1.59-3.65-3.55-4.77-5.86v6.46h-19.28v-85.38H239z
			 M239.09,296.7c0,4.3,0.47,7.46,1.4,9.45c0.94,1.91,2.4,2.87,4.4,2.87c2,0,3.52-1,4.59-2.99c1.06-1.99,1.59-5.38,1.59-10.16
			c0-4.62-0.53-7.95-1.59-9.98c-1.06-2.03-2.59-3.05-4.59-3.05c-1.87,0-3.31,0.96-4.3,2.87c-0.56,1.12-0.95,2.43-1.17,3.95
			c-0.22,1.52-0.33,3.31-0.33,5.38V296.7z"/>
	</g>
	<g>
		<polygon class="st4" points="139.86,169.02 106.57,169.02 106.57,169.02 106.56,169.02 87.85,202.13 69.14,169.02 60.26,169.02 
			87.87,217.86 111.09,176.77 139.86,176.77 		"/>
		<polygon class="st4" points="139.86,196.45 139.86,188.69 106.82,188.69 106.82,215.74 139.86,215.74 139.86,207.99 
			114.58,207.99 114.58,196.45 		"/>
		
			<rect x="202.12" y="188.5" transform="matrix(3.172733e-11 1 -1 3.172733e-11 417.8636 -33.108)" class="st4" width="46.73" height="7.75"/>
		<path class="st4" d="M218.59,169.02H179v0.14c2.44,1.97,4.31,4.6,5.37,7.62h10.55v38.97h7.75v-38.97h15.92V169.02z"/>
		<path class="st4" d="M177.06,215.74h7.75l-11.47-21.01c4.89-1.98,8.34-6.77,8.34-12.37c0-7.37-5.98-13.35-13.35-13.35h-17.52
			h-5.22h-2.54v46.73h7.75v-20.03h15.31L177.06,215.74z M150.81,176.77h17.52c3.09,0,5.59,2.5,5.59,5.59c0,3.09-2.5,5.59-5.59,5.59
			h-17.52V176.77z"/>
		<path class="st4" d="M289.28,167.3h-0.03l-19.91,33.17l-0.02,0.03l0,0c-2.79,4.63-7.87,7.73-13.67,7.73
			c-8.81,0-15.96-7.14-15.96-15.96s7.14-15.96,15.96-15.96c5.42,0,10.21,2.71,13.09,6.84l4.19-6.98
			c-4.31-4.63-10.46-7.53-17.28-7.53c-13.04,0-23.62,10.57-23.62,23.62s10.57,23.62,23.62,23.62c8.61,0,16.13-4.6,20.26-11.48l0,0
			l13.3-22.16l20.17,33.6l8.97-0.11L289.28,167.3z"/>
	</g>
</g>
</svg>
