<?xml version="1.0" encoding="UTF-8"?><svg id="a" xmlns="http://www.w3.org/2000/svg" viewBox="0 0 380.76 393.52"><defs><style>.b{fill:#0079ef;stroke:#000;stroke-width:.93px;}.b,.c,.d{stroke-miterlimit:10;}.c{fill:none;stroke:#fff;stroke-width:7.84px;}.e,.d{fill:#fff;}.d{stroke:#2f3d3f;stroke-width:1.66px;}</style></defs><rect class="b" x="37.23" y="50.03" width="295" height="295"/><g><g><path class="d" d="M133.8,259.83c.42,3.54,1.5,6.23,3.27,8.09,1.76,1.86,4.45,2.79,8.04,2.79,2.91,0,5.03-.6,6.38-1.79,1.35-1.19,2.02-2.94,2.02-5.24,0-1.77-.47-3.18-1.4-4.24-.93-1.06-2.68-1.94-5.24-2.65l-10.07-2.52c-8.65-2.21-14.93-5.66-18.84-10.35-3.91-4.69-5.87-10.92-5.87-18.7,0-5.04,.74-9.48,2.23-13.33,1.49-3.85,3.6-7.1,6.33-9.75,2.73-2.65,6.05-4.64,9.97-5.97,3.91-1.33,8.29-1.99,13.13-1.99,5.26,0,9.81,.75,13.65,2.25,3.84,1.5,7.02,3.6,9.55,6.3,2.53,2.7,4.45,5.82,5.76,9.35,1.31,3.54,2.11,7.34,2.39,11.41l-22.94,2.65c-.62-3.45-1.64-5.81-3.06-7.1-1.42-1.28-3.44-1.92-6.07-1.92-2.84,0-4.88,.58-6.12,1.72-1.25,1.15-1.87,2.61-1.87,4.38,0,1.5,.47,2.74,1.4,3.71,.93,.97,2.72,1.81,5.35,2.52l9.97,2.65c4.5,1.24,8.32,2.72,11.47,4.44,3.15,1.72,5.71,3.78,7.68,6.17,1.97,2.39,3.41,5.11,4.31,8.16,.9,3.05,1.35,6.57,1.35,10.55,0,10.26-2.79,18.19-8.36,23.81-5.57,5.62-13.75,8.42-24.55,8.42-5.47,0-10.22-.78-14.27-2.32-4.05-1.55-7.42-3.78-10.12-6.7-2.7-2.92-4.76-6.48-6.18-10.68-1.42-4.2-2.27-8.91-2.54-14.13h23.25Z"/><path class="d" d="M215.71,293.65c-5.88,0-11.09-1.13-15.62-3.38-4.53-2.25-8.36-5.5-11.47-9.75-3.11-4.25-5.49-9.42-7.11-15.52-1.63-6.1-2.44-13-2.44-20.69s.79-14.61,2.39-20.76c1.59-6.15,3.98-11.41,7.16-15.78,3.18-4.38,7.11-7.74,11.78-10.08,4.67-2.34,10.09-3.51,16.25-3.51s11.35,1.13,15.99,3.38c4.64,2.25,8.53,5.5,11.68,9.75,3.15,4.24,5.52,9.37,7.11,15.39,1.59,6.01,2.39,12.78,2.39,20.29s-.8,14.44-2.39,20.49c-1.59,6.06-3.94,11.3-7.06,15.72l8.3,13.26-12.25,12.34-8.93-14.46c-4.84,2.21-10.1,3.32-15.78,3.32Zm.73-25.2h.88c.31,0,.67-.04,1.09-.13l-7.99-12.6,11.42-11.81,7.16,11.27c.21-1.5,.38-3.2,.52-5.11,.14-1.9,.21-3.82,.21-5.77,0-16.18-4.43-24.27-13.29-24.27s-13.29,8.09-13.29,24.27,4.43,24.14,13.29,24.14Z"/><path class="d" d="M258.99,196.56h23.56v68.84h31.04l-1.97,25.87h-52.63v-94.71Z"/></g><path class="d" d="M73.08,222.68l8.26,42.65,8.26-42.65h16.94l-15.31,64.39h-20.18l-15.17-64.39h17.22Z"/></g><rect class="e" x="137.96" y="96.05" width="34.06" height="69.59"/><polyline class="c" points="86.93 94.43 115.24 126.77 86.93 164.2"/></svg>