<svg fill="none" height="49" viewBox="0 0 49 49" width="49" xmlns="http://www.w3.org/2000/svg"><g stroke="#06f" stroke-linecap="round" stroke-linejoin="round" stroke-width="2"><path d="m43.6631 1.00195h-38.00002c-2.20913 0-3.99999 1.79086-3.99999 4v38.00005c0 2.2091 1.79086 4 3.99999 4h38.00002c2.2091 0 4-1.7909 4-4v-38.00005c0-2.20914-1.7909-4-4-4z"/><path d="m5.66699 26.9996h4.74801c4.412 0 4.03-3.734 7.266-19.26401.0468-.22499.1698-.42698.3481-.57198s.4011-.22416.6309-.22416.4526.07916.6309.22416.3012.34699.3481.57198l6.124 29.86401c.0455.2229.1657.4236.3406.569.175.1454.3943.2268.6218.2308.2274.0039.4494-.0698.6293-.209.18-.1392.307-.3356.3603-.5568l4.218-17.574c.0492-.2068.163-.3925.325-.5302.1619-.1377.3634-.2202.5754-.2356s.4234.0372.6035.1501.3195.2802.3981.4777c1.486 3.716 2.08 7.082 5.54 7.082h4.292"/></g></svg>