<?xml version="1.0" encoding="UTF-8"?>
<svg width="435.25mm" height="516.07mm" version="1.1" viewBox="0 0 435.25 516.07" xmlns="http://www.w3.org/2000/svg" xmlns:xlink="http://www.w3.org/1999/xlink">
 <defs>
  <linearGradient id="linearGradient2328-0" x1="-859.4" x2="-793.98" y1="733.36" y2="620.05" gradientTransform="matrix(1.5664 0 0 1.5548 3059.1 -732.46)" gradientUnits="userSpaceOnUse">
   <stop stop-color="#fc4a1a" offset="0"/>
   <stop stop-color="#fc4a1a" offset=".33601"/>
   <stop stop-color="#f7b733" offset="1"/>
  </linearGradient>
  <linearGradient id="linearGradient2330-4" x1="-898.25" x2="-845.39" y1="605.3" y2="667.44" gradientTransform="matrix(1.5664 0 0 1.5548 3059.1 -732.46)" gradientUnits="userSpaceOnUse">
   <stop stop-color="#859398" offset="0"/>
   <stop stop-color="#859398" offset=".083033"/>
   <stop stop-color="#283048" offset="1"/>
  </linearGradient>
  <linearGradient id="linearGradient2332-6" x1="-891.39" x2="-855.69" y1="608.1" y2="705.35" gradientTransform="matrix(1.5664 0 0 1.5548 3059.1 -732.46)" gradientUnits="userSpaceOnUse">
   <stop stop-color="#859398" offset="0"/>
   <stop stop-color="#859398" offset=".18544"/>
   <stop stop-color="#283048" offset="1"/>
  </linearGradient>
  <linearGradient id="linearGradient2334-9" x1="-4118.2" x2="-3914.8" y1="626.51" y2="810.87" gradientTransform="matrix(1.7947 0 0 1.7947 15133 -2918.8)" gradientUnits="userSpaceOnUse">
   <stop stop-color="#859398" offset="0"/>
   <stop stop-color="#859398" offset=".18601"/>
   <stop stop-color="#283048" offset="1"/>
  </linearGradient>
 </defs>
 <g transform="translate(72.482 57.042)">
  <g transform="matrix(2.9064 0 0 2.9064 -4914.3 -728.35)" stroke="#00000f" stroke-opacity=".97238">
   <g stroke-width=".26458">
    <path d="m1728.5 408.23v2e-3l0.018-2e-3z" fill="#f00" fill-rule="evenodd" stroke-linecap="round" stroke-linejoin="round" style="paint-order:normal"/>
    <path d="m1780.8 231.58-67.377 144.06 15.074 32.597 86.927-176.65z" fill="url(#linearGradient2328-0)"/>
    <path d="m1673.2 270.19c-2.9691 0-5.5763 1.2722-7.1166 3.2141l14.694 31.855h54.168l14.102-31.821c-1.537-1.9606-4.1556-3.2479-7.1418-3.2479z" fill="url(#linearGradient2330-4)"/>
    <path d="m1688.5 313.64c-2.0526 0-1.971 1.5286-3.0445 2.7838l21.814 47.376h1.6816l21.658-47.578c-1.0506-1.3584-1.8982-2.5815-4.0495-2.5815z" fill="url(#linearGradient2332-6)"/>
   </g>
   <path transform="matrix(.26458 0 0 .26458 -391.73 651.73)" d="m7904.8-1589.8c-21.813-0.092-39.377 20.375-39.377 45.684v60.91c0 2.5968 0.195 5.137 0.5488 7.6133l119.2-0.6231 0.068 12.67h121.6c2.4575-4.8098 5.6776-10.674 7.1641-15.144l18.6-39.728 6.3965-13.668 3.1797-6.7929c-6.895-35.328-12.626-36.849-35.834-49.998l-83.32-0.8418c-15.803-0.1504-5.1389 0.072-31.93-0.041zm-12.633 39.852h34.135l-17.066 34.08z" fill="url(#linearGradient2334-9)"/>
  </g>
 </g>
</svg>
